PathFileType	4	(X/Y/Z)	Kaydara	
DataRate	CameraRate	NumFrames	NumMarkers	Units	OrigDataRate	OrigDataStartFrame	OrigNumFrames	
240.00	240.00	4	72	mm	240.00	135	359	
Frame#	Time	Hips			RightUpLeg			RightLeg			RightFoot			RightFoot_End			LeftUpLeg			LeftLeg			LeftFoot			LeftFoot_End			Spine			Spine1			Spine2			Spine3			Neck			Head			Head_End			RightShoulder			RightArm			RightForeArm			RightHand			RightHandThumb1			RightHandThumb2			RightHandThumb3			RightHandThumb3_End			RightInHandIndex			RightHandIndex1			RightHandIndex2			RightHandIndex3			RightHandIndex3_End			RightInHandMiddle			RightHandMiddle1			RightHandMiddle2			RightHandMiddle3			RightHandMiddle3_End			RightInHandRing			RightHandRing1			RightHandRing2			RightHandRing3			RightHandRing3_End			RightInHandPinky			RightHandPinky1			RightHandPinky2			RightHandPinky3			RightHandPinky3_End			LeftShoulder			LeftArm			LeftForeArm			LeftHand			LeftHandThumb1			LeftHandThumb2			LeftHandThumb3			LeftHandThumb3_End			LeftInHandIndex			LeftHandIndex1			LeftHandIndex2			LeftHandIndex3			LeftHandIndex3_End			LeftInHandMiddle			LeftHandMiddle1			LeftHandMiddle2			LeftHandMiddle3			LeftHandMiddle3_End			LeftInHandRing			LeftHandRing1			LeftHandRing2			LeftHandRing3			LeftHandRing3_End			LeftInHandPinky			LeftHandPinky1			LeftHandPinky2			LeftHandPinky3			LeftHandPinky3_End			
		X1	Y1	Z1	X2	Y2	Z2	X3	Y3	Z3	X4	Y4	Z4	X5	Y5	Z5	X6	Y6	Z6	X7	Y7	Z7	X8	Y8	Z8	X9	Y9	Z9	X10	Y10	Z10	X11	Y11	Z11	X12	Y12	Z12	X13	Y13	Z13	X14	Y14	Z14	X15	Y15	Z15	X16	Y16	Z16	X17	Y17	Z17	X18	Y18	Z18	X19	Y19	Z19	X20	Y20	Z20	X21	Y21	Z21	X22	Y22	Z22	X23	Y23	Z23	X24	Y24	Z24	X25	Y25	Z25	X26	Y26	Z26	X27	Y27	Z27	X28	Y28	Z28	X29	Y29	Z29	X30	Y30	Z30	X31	Y31	Z31	X32	Y32	Z32	X33	Y33	Z33	X34	Y34	Z34	X35	Y35	Z35	X36	Y36	Z36	X37	Y37	Z37	X38	Y38	Z38	X39	Y39	Z39	X40	Y40	Z40	X41	Y41	Z41	X42	Y42	Z42	X43	Y43	Z43	X44	Y44	Z44	X45	Y45	Z45	X46	Y46	Z46	X47	Y47	Z47	X48	Y48	Z48	X49	Y49	Z49	X50	Y50	Z50	X51	Y51	Z51	X52	Y52	Z52	X53	Y53	Z53	X54	Y54	Z54	X55	Y55	Z55	X56	Y56	Z56	X57	Y57	Z57	X58	Y58	Z58	X59	Y59	Z59	X60	Y60	Z60	X61	Y61	Z61	X62	Y62	Z62	X63	Y63	Z63	X64	Y64	Z64	X65	Y65	Z65	X66	Y66	Z66	X67	Y67	Z67	X68	Y68	Z68	X69	Y69	Z69	X70	Y70	Z70	X71	Y71	Z71	X72	Y72	Z72	

135	0.558	7198.941	914.58397	126.699	7253.937939739426	896.7973598120929	53.120019508976576	7158.70990571057	500.35562736645437	-43.14507630660738	7141.401444213805	108.88013328040994	-118.84795290281102	6989.845580230644	32.172826741988985	-31.18417553251371	7158.289098826678	906.200141778052	211.5918106818978	7066.7722760769775	504.3026646218596	285.8245557749323	6993.416929653734	79.92564939233998	375.9250938946691	6871.872750132328	-2.423969367640388	253.5144093922595	7132.139896418791	1032.0779925284799	79.5156244178694	7070.396615268702	1088.4626164533317	30.029826316198534	7003.287596508477	1140.1373143711842	-25.32298937038983	6935.547203450609	1178.0874551672414	-83.68824690349072	6862.014667433228	1219.1017440327862	-144.36711961102858	6793.379626307833	1256.8304294905026	-197.01989345659896	6654.246378113481	1334.209166745577	-205.5855774201578	6906.558862090901	1205.813148667713	-148.14214009192415	6964.490071955809	1189.6777435037438	-259.5218181631725	7035.4735887948555	938.274539700517	-279.6325932456975	7038.3277716982575	813.3605336921787	-475.23307701146825	7044.655324848611	826.7795104195134	-499.973356676265	7029.8967997157	831.958718927099	-525.6747250061778	7019.513676401845	832.2216118756885	-543.6813191533317	7010.767647934969	829.5801481044551	-558.7851617102443	7047.097847322357	815.912429981234	-503.02331837692066	7050.411040405704	807.8913894921111	-544.1969269012658	7040.7548376513305	802.9037151158589	-570.7538834118443	7028.014363794694	803.4753426547618	-582.8309049929094	7012.924615332359	806.425667770664	-589.8365649271943	7046.127607690905	807.1249579481926	-501.78479127787585	7048.837805301822	794.5481596249645	-541.2749669003472	7038.147260204224	787.9728854121173	-569.9542995801321	7022.70256627237	788.1189821031688	-584.3810011760193	7006.155776725655	791.0829357602761	-591.9765625043768	7045.479018823309	801.0918043942517	-499.8892670259389	7047.700150777951	784.4969906982359	-533.7231992285272	7038.219510059925	777.6283421440934	-558.3514285092713	7023.235448931229	777.1651329723228	-572.0712729149942	7007.636331853226	779.6657146942423	-579.1201977713212	7043.678902474784	794.6029463671293	-496.2739753914203	7045.0148809014645	775.2803854313543	-525.1920095640766	7037.158688583988	768.0780015059592	-544.1902717417904	7026.101329989307	766.9167124923606	-553.8477887472877	7012.209427968297	768.6579341298486	-559.890678884239	6866.2367781530675	1205.3265366461708	-99.10408255396098	6815.966018559978	1148.0518874239103	2.3460646681949946	6942.63393518345	987.3101671390158	-161.45660689088487	7028.917607625183	871.7531167975333	-366.52132565407584	7054.703735899577	882.0128668114543	-383.40293587980074	7089.873543292559	872.4653822308928	-392.3678993538609	7113.559068467335	862.7294918061939	-399.51633183131185	7132.614528256691	851.9722401896937	-406.250072315345	7053.397080333194	872.9971816850767	-389.6419724413239	7091.197819950576	858.6443615474893	-422.0754110618632	7121.672909681159	842.7317311786611	-436.9264838001323	7140.631857923296	833.2152767887768	-438.6680810225357	7156.332670015108	825.5924165401377	-435.05648009519626	7050.085393700677	864.818950040767	-390.6082710055999	7085.162617826504	846.3977223700226	-422.767745053753	7117.862627557634	827.993934109444	-438.98587548773105	7140.469871447091	816.0136443859882	-441.0930975338199	7157.520076355182	807.4302548243761	-437.1442880247425	7046.740984464614	859.44441137386	-390.5540648595512	7075.156700292889	838.3784323817065	-419.5938408663694	7103.036686255349	821.3033138432301	-433.6908748721306	7124.513133662784	809.1980991974103	-435.7028629286333	7140.388225489197	800.8672616257777	-431.98021679110786	7042.107046039383	853.3733553883858	-388.8370303762023	7065.190656006625	830.4289045466214	-414.7285936587544	7086.42273979744	815.2337382479558	-425.8292098249461	7101.558943647142	805.6678805754538	-427.20593382662327	7115.317357581389	797.864383984826	-423.85600026769634
136	0.563	7198.941	914.58397	126.699	7253.899252356164	896.7571197870268	53.11091896693583	7158.660342675746	500.3265073198577	-43.186984894648056	7141.398086045826	108.85251773157817	-118.89882862303308	6989.845363108988	32.145821808537036	-31.22909192912936	7158.321955005417	906.2385972956972	211.60350664715043	7066.800825188157	504.33821165289544	285.814027785132	6993.403564806927	79.95823747143285	375.85439927569956	6871.863648453842	-2.3939891723614406	253.44129075878706	7132.1676427289385	1032.0878989846806	79.50458732878688	7070.43871840758	1088.47394639846	30.00346405578631	7003.344656606247	1140.1517408232983	-25.364063396819976	6935.618082882493	1178.109970045786	-83.74041336592022	6862.099643891893	1219.132055257446	-144.431393851224	6793.477953429897	1256.8689851631923	-197.09580747998612	6654.360258141348	1334.2613488728425	-205.71607227108277	6906.610170068013	1205.7878133028332	-148.1951926422358	6964.373843734357	1189.3987151220658	-259.4290804965385	7034.970323534689	938.3211034421169	-278.92176604188035	7037.5217551258565	813.5224976885047	-473.8024567244724	7043.820030683022	826.9665885409532	-498.4176392440807	7029.118129908555	832.1576760095331	-524.0037747111296	7018.775584222412	832.4266451381883	-541.9343581483223	7010.0643625757775	829.7883679205024	-556.9784588968053	7046.255039427269	816.0949658100158	-501.46953878844926	7049.554927815786	808.0927717203981	-542.4783273131729	7039.937166172257	803.1127281557933	-568.9300657571578	7027.246873873781	803.686416033284	-580.9562147697001	7012.216389189578	806.6366362497437	-587.9295761870543	7045.290642725704	807.3006034972594	-500.24872421723586	7047.991010180785	794.7384619847628	-539.5877173888845	7037.343285677503	788.1705373580617	-568.1551198043007	7021.959553288258	788.3186508713817	-582.5218293268529	7005.477812919808	791.2822617806291	-590.0827229456952	7044.646041893108	801.2621461059816	-498.36981844271924	7046.860423043985	784.6759956244528	-532.0823904870374	7037.418018723993	777.8127306595367	-556.6162476444792	7022.493245182052	777.3509239509199	-570.2799172860547	7006.955520746628	779.8509261313413	-577.2970477437142	7042.854684824849	794.766273978403	-494.77925401405264	7044.188258242373	775.4474920893331	-523.6008282623025	7036.364142830996	768.2477860730492	-542.5290223389447	7025.350734431976	767.0867300511093	-552.1482265437944	7011.513622387154	768.8269836672316	-558.1644836399287	6866.347322728554	1205.4085491190465	-99.17235974351446	6816.162325529973	1148.4636760199417	2.2819248896667617	6942.413914560062	987.55425737908	-160.90551576468957	7028.185616284203	871.7907171808549	-365.3697064477882	7053.851304710244	882.0324578596014	-382.1886369149829	7088.883707394457	872.4683059265437	-391.15364193477603	7112.47715003334	862.721635613421	-398.3008128654327	7131.4589295459555	851.9561049708285	-405.0323976970975	7052.547359774537	873.0179164288083	-388.40925818228635	7090.177937446623	858.6431229789156	-420.74879025115	7120.530157301596	842.7161066187703	-435.57745150632496	7139.4205390798525	833.1922365560451	-437.3370224221296	7155.069874702624	825.5642690988354	-433.7618205012551	7049.251192143649	864.8427426339052	-389.3773562771303	7084.170840926683	846.4017365827751	-421.44619781021703	7116.739369263798	827.982726230975	-437.6404685426827	7139.26513509197	815.9937181391043	-439.76966113470695	7156.259620598979	807.4048513726428	-435.8608177730559	7045.922124279666	859.4709168938981	-389.326354728963	7074.210040786312	838.3895436912293	-418.2863327830263	7101.97832644675	821.3016751732415	-432.363327376731	7123.37772153949	809.1883258769199	-434.39690973867937	7139.201152756125	800.8524686286687	-430.71203237107545	7041.310522169985	853.4036885521683	-387.6193825527871	7064.29074790279	830.447443500527	-413.44237469271854	7085.438466617418	815.2429422938866	-424.5284761587453	7100.520925748694	805.6715743404222	-425.9216922608421	7114.234991149396	797.8638746838958	-422.60564222847415
137	0.567	7198.941	914.58397	126.699	7253.860073977381	896.7163633299365	53.10170703143009	7158.6102127260565	500.2969768629417	-43.22933825684469	7141.394897769246	108.82451578402768	-118.95029689257997	6989.845327185512	32.11839790983599	-31.27461007478914	7158.355254141269	906.2775666422825	211.61536125111468	7066.8298847287615	504.3742215938099	285.8034547626342	6993.390383526267	79.99121433412773	375.7828921018723	6871.854779961001	-2.363674769157462	253.36734783743034	7132.195625375224	1032.097841710417	79.49334627094552	7070.481084759513	1088.4852480105967	29.97679571959637	7003.401975849839	1140.1660710784197	-25.405500063808617	6935.689162468377	1178.132348042308	-83.79290046225474	6862.18476459968	1219.1621856062895	-144.49595078118423	6793.576396035525	1256.907343451822	-197.17197859742794	6654.474529847188	1334.313678444409	-205.8473362388652	6906.661248472083	1205.7616715173933	-148.24852621142747	6964.255023845296	1189.116155070028	-259.3355200845328	7034.460727236254	938.3674960919598	-278.20302443612513	7036.705575315778	813.683063439539	-472.3519965250457	7042.9741370551865	827.1518023990136	-496.84087967381186	7028.329330200432	832.3541574809518	-522.3101832269577	7018.027683749207	832.6287884057862	-540.1635763536484	7009.351532417296	829.99336200486	-555.1468954324677	7045.401469942941	816.275645800368	-499.8943650906045	7048.6875642674	808.2915955793968	-540.7357351121005	7039.108452097771	803.3186380431864	-567.0804738979715	7026.468814566004	803.8940621502898	-579.0549128037089	7011.49821715021	806.8439190388453	-585.9954646490487	7044.442944620606	807.4744458973349	-498.6911751927732	7047.133019835476	794.9263044838449	-537.8764038833772	7036.528349318782	788.3651441376088	-566.3299288333903	7021.206152274064	788.5148878439893	-580.6356343223941	7004.790144701777	791.4778753748878	-588.1613003152056	7043.802358703983	801.4307403232847	-496.82889091639043	7046.0095815707045	784.8527142922821	-530.4177878408876	7036.605624025727	777.994333155019	-554.8555765707845	7021.740695240309	777.5335614943845	-568.462095801941	7006.265007970721	780.0327228856135	-575.4469056214054	7042.01985102783	794.927934638924	-493.2631420662316	7043.350681945574	775.6124887577525	-521.98618267019	7035.558824566435	768.4150790203073	-540.842961790588	7024.5897788910825	767.2539969739789	-550.423147108839	7010.808031290911	768.99305631274	-556.4123081981363	6866.458439947574	1205.491051919593	-99.24095608838273	6816.360660167411	1148.8794766243711	2.217797338339974	6942.192780019368	987.800006054404	-160.34628716472992	7027.446344969483	871.8261632981239	-364.2024117382391	7052.990065641302	882.0497267060599	-380.9583328872853	7087.883364684685	872.4689880373537	-389.92342966133504	7111.383585012997	862.7115722177987	-397.06927224775313	7130.29077116288	851.9377725969689	-403.79855868558985	7051.688851784195	873.036199196237	-387.16006232657276	7089.147102009235	858.6390542401684	-419.40443146772077	7119.374917285392	842.6975829443411	-434.21024228955923	7138.195895969153	833.1664080372417	-435.9879333606017	7153.793141897248	825.5335287736661	-432.4495345420967	7048.408395146061	864.8640464638826	-388.12974759638035	7083.168460277008	846.4028732000182	-420.1066161955316	7115.60386487602	827.9685621402341	-436.2765248435584	7138.047158789791	815.9709677669114	-438.4278534543345	7154.985261456295	807.3768368117022	-434.5594129360742	7045.094859690141	859.4949151219622	-388.08182734171277	7073.253343254503	838.3977767460694	-416.96068351146715	7100.908533339946	821.2970869036888	-431.01717906767544	7122.229936692477	809.1757288665392	-433.0725037990631	7138.0010926095	800.835051520571	-429.42580033395484	7040.505875755937	853.4315212757555	-386.38485379043766	7063.38139242346	830.4631385235434	-412.138002915481	7084.4436923785	815.2492425092428	-423.20919351629186	7099.471752335737	805.6724547741775	-424.6189961176416	7113.140942393489	797.8607280753504	-421.3371806666367
138	0.571	7198.941	914.58397	126.699	7253.820406288894	896.6750921954641	53.09238412992669	7158.559518063175	500.26703720908904	-43.27213434295201	7141.391879867482	108.79612858565457	-119.00235526944813	6989.845472775156	32.090556107525614	-31.320727894121546	7158.388994843594	906.3170481741714	211.62737397765682	7066.859453746905	504.4106929041679	285.79283734561704	6993.377386929902	80.02457853459332	375.71057564206546	6871.846145581366	-2.333027516024385	253.29258402520398	7132.223842965451	1032.1078201252046	79.48190161501628	7070.523712066145	1088.4965204996984	29.949822468786625	7003.459551054074	1140.180304037755	-25.4472974053092	6935.760438140058	1178.15458751233	-83.8457055400881	6862.270024592686	1219.192132903348	-144.56078700707337	6793.674948340142	1256.9455016530142	-197.24840271649683	6654.5891868324725	1334.3661522685304	-205.97936269866437	6906.712093894488	1205.7347238286147	-148.30213796635405	6964.1336161961035	1188.8300765477109	-259.2411410217788	7033.944825200812	938.4137174413196	-277.4764015330236	7035.879272199959	813.8422266870182	-470.88175985342696	7042.117685569834	827.3351469107956	-495.2431465883187	7027.530440149637	832.548157531125	-520.5940240760121	7017.270013012656	832.8280354282501	-538.3690505132881	7008.629194128327	830.1951237973852	-553.2905505840806	7044.537180634194	816.4544650310047	-498.2978657546322	7047.808992321528	808.4878553862102	-538.96922551239	7038.268736540202	803.521438571288	-565.2051874455746	7025.680225005698	804.0982744816461	-577.1270809093996	7010.770135984688	807.0475093567325	-584.0343135934303	7043.584554738078	807.6464804348343	-497.1122119091933	7046.263876187851	795.1116817781168	-536.141100251004	7035.702491411076	788.5566998649205	-564.4788052091401	7020.442401098512	788.7076867665837	-578.7224973032207	7004.09280734017	791.6697700142993	-586.2123773285402	7042.948010333645	801.5975824989723	-495.26655144112226	7045.147667748039	785.0271417345633	-528.7294631993232	7035.782365865991	778.1731442227303	-553.0694911359385	7020.977836645917	777.7130398561382	-566.6178867450398	7005.564828605418	780.2110989604626	-573.5698511335402	7041.174441654022	795.0879240136127	-491.72570550343085	7042.502192621679	775.7753708475933	-520.3481426235141	7034.742773112537	768.5798754568867	-539.132162852895	7023.8185009203435	767.4185081477082	-548.6726248615204	7010.0926900273935	769.1561467458432	-554.6342281945728	6866.570123829837	1205.5740404732535	-99.30986809053135	6816.56101303986	1149.2992690510744	2.153684847535354	6941.970544957183	988.0474027233004	-159.7789441644118	7026.699830172895	871.8594561531561	-363.0194925850502	7052.120060436802	882.0646762949024	-379.7120772167822	7086.872562555552	872.4674330649538	-388.6773157575096	7110.278424564578	862.6993070815774	-395.82176316804765	7129.110107261978	851.9172492250559	-402.5486085296621	7050.82159798292	873.0520326948242	-385.8944392197683	7088.105362497203	858.6321600517663	-418.0423929775706	7118.207243553929	842.6761661159001	-432.82491531735	7136.957985248844	833.1377978203539	-434.620872175663	7152.5025302441	825.5002025752042	-431.11967893081834	7047.557043622423	864.8828638230075	-386.8654993640826	7082.15552346975	846.4011362530244	-418.74905846462946	7114.456167394234	827.9514471600799	-434.89410362130616	7136.815998785719	815.9453993197584	-437.06773271881366	7153.697057319738	807.3462176399411	-433.240129960482	7044.259230926977	859.5164080069075	-386.82053705745057	7072.286653319861	838.4031347589776	-415.6169508883182	7099.827357140942	821.2895533074513	-429.6524886181013	7121.069832389132	809.160313106021	-431.729702806139	7136.788100303201	800.8150156459906	-428.1215766994192	7039.693146029954	853.4568550442003	-385.1334981303404	7062.462633133591	830.4759919787807	-410.8155354293274	7083.438464090107	815.2526419981468	-421.8714196322732	7098.411472541396	805.6705254150675	-423.2979024011269	7112.0352621436095	797.8549480260438	-420.0506710905975
